<svg width="27" height="25" viewBox="0 0 27 25" fill="none" xmlns="http://www.w3.org/2000/svg">
<g clip-path="url(#clip0_2726_97)">
<path d="M0.00529255 9.63025C0.164069 9.14952 0.423404 8.72505 0.947366 8.58697C1.35489 8.47958 1.79417 8.45401 2.22287 8.4131C4.43515 8.21365 6.64744 8.02443 8.85973 7.8352C9.03967 7.81986 9.12965 7.75338 9.20374 7.58973C10.1723 5.38556 11.1514 3.18139 12.1252 0.972112C12.3211 0.522073 12.6174 0.189658 13.1096 0.0566921C13.8294 -0.142757 14.5333 0.194772 14.8456 0.900515C15.5072 2.38871 16.1634 3.87691 16.8197 5.36511C17.1532 6.11176 17.4866 6.85842 17.8094 7.61019C17.8729 7.75338 17.9523 7.81986 18.1111 7.8352C19.7359 7.97328 21.366 8.11136 22.9908 8.25456C23.8853 8.33127 24.7744 8.4131 25.6689 8.49492C26.2881 8.55118 26.7221 8.86825 26.9179 9.43591C27.119 10.024 26.9444 10.5406 26.4627 10.9497C24.5945 12.535 22.7262 14.1204 20.8526 15.7007C20.6833 15.8439 20.6198 15.9615 20.6727 16.1916C21.2337 18.5287 21.7788 20.8659 22.3293 23.2081C22.4722 23.8167 22.324 24.3486 21.7947 24.7219C21.2655 25.0952 20.6992 25.0799 20.1381 24.7526C18.0052 23.5201 15.8724 22.2927 13.7447 21.05C13.5648 20.9426 13.4325 20.9426 13.2525 21.05C11.1302 22.2825 9.00792 23.5099 6.88031 24.7372C6.16053 25.1515 5.38252 25.0441 4.91678 24.4662C4.62039 24.1031 4.5463 23.6888 4.65215 23.2388C5.20258 20.9017 5.74771 18.5594 6.30872 16.2223C6.36694 15.9819 6.3193 15.849 6.12877 15.6853C4.26579 14.1204 2.4134 12.5453 0.555718 10.9752C0.280505 10.7451 0.121729 10.4536 0 10.1365C0.00529255 9.96778 0.00529255 9.79901 0.00529255 9.63025Z" fill="#F2C94C"/>
<path d="M0.00529255 9.63025C0.164069 9.14952 0.423404 8.72505 0.947366 8.58697C1.35489 8.47958 1.79417 8.45401 2.22287 8.4131C4.43515 8.21365 6.64744 8.02443 8.85973 7.8352C9.03967 7.81986 9.12965 7.75338 9.20374 7.58973C10.1723 5.38556 11.1514 3.18139 12.1252 0.972112C12.3211 0.522073 12.6174 0.189658 13.1096 0.0566921C13.8294 -0.142757 14.5333 0.194772 14.8456 0.900515C15.5072 2.38871 16.1634 3.87691 16.8197 5.36511C17.1532 6.11176 17.4866 6.85842 17.8094 7.61019C17.8729 7.75338 17.9523 7.81986 18.1111 7.8352C19.7359 7.97328 21.366 8.11136 22.9908 8.25456C23.8853 8.33127 24.7744 8.4131 25.6689 8.49492C26.2881 8.55118 26.7221 8.86825 26.9179 9.43591C27.119 10.024 26.9444 10.5406 26.4627 10.9497C24.5945 12.535 22.7262 14.1204 20.8526 15.7007C20.6833 15.8439 20.6198 15.9615 20.6727 16.1916C21.2337 18.5287 21.7788 20.8659 22.3293 23.2081C22.4722 23.8167 22.324 24.3486 21.7947 24.7219C21.2655 25.0952 20.6992 25.0799 20.1381 24.7526C18.0052 23.5201 15.8724 22.2927 13.7447 21.05C13.5648 20.9426 13.4325 20.9426 13.2525 21.05C11.1302 22.2825 9.00792 23.5099 6.88031 24.7372C6.16053 25.1515 5.38252 25.0441 4.91678 24.4662C4.62039 24.1031 4.5463 23.6888 4.65215 23.2388C5.20258 20.9017 5.74771 18.5594 6.30872 16.2223C6.36694 15.9819 6.3193 15.849 6.12877 15.6853C4.26579 14.1204 2.4134 12.5453 0.555718 10.9752C0.280505 10.7451 0.121729 10.4536 0 10.1365C0.00529255 9.96778 0.00529255 9.79901 0.00529255 9.63025Z" fill="#F2C94C"/>
</g>
<defs>
<clipPath id="clip0_2726_97">
<rect width="27" height="25" fill="white"/>
</clipPath>
</defs>
</svg>
